<svg width="1080" height="1080" viewBox="0 0 1080 1080" fill="none" xmlns="http://www.w3.org/2000/svg">
<path d="M540 1079.91C836.362 1079.91 1076.61 839.661 1076.61 543.3C1076.61 246.938 836.362 6.69 540 6.69C243.639 6.69 3.39014 246.938 3.39014 543.3C3.39014 839.661 243.639 1079.91 540 1079.91Z" fill="#563392"/>
<path d="M878.66 517.65C878.23 518.17 834.5 569.16 777.41 569.9C743.41 570.43 710.23 552.63 678.84 517.24C636.57 469.48 590.15 445.74 540.63 446.55C460.63 447.93 404.01 514.65 401.33 517.87C369.89 553.38 336.67 571.24 302.59 570.71C245.5 570 201.77 519 201.34 518.46L162 559.83C164.38 562.68 221.15 629.83 301.34 631.18C302.2 631.18 303.05 631.18 303.91 631.18C352.39 631.18 398.29 607.18 439.83 560.18C440.26 559.67 484.83 507.94 541.44 506.97C575.65 506.35 608.92 524.1 640.44 559.62C682 606.62 727.6 630.4 776.08 630.4H778.65C858.84 629 915.61 561.88 918 559L878.66 517.65Z" fill="white"/>
<path d="M540.11 751.15C586.695 751.15 624.46 713.385 624.46 666.8C624.46 620.215 586.695 582.45 540.11 582.45C493.525 582.45 455.76 620.215 455.76 666.8C455.76 713.385 493.525 751.15 540.11 751.15Z" fill="white"/>
<path d="M302.13 504.16C348.715 504.16 386.48 466.395 386.48 419.81C386.48 373.225 348.715 335.46 302.13 335.46C255.545 335.46 217.78 373.225 217.78 419.81C217.78 466.395 255.545 504.16 302.13 504.16Z" fill="white"/>
<path d="M776.28 504.16C822.865 504.16 860.63 466.395 860.63 419.81C860.63 373.225 822.865 335.46 776.28 335.46C729.695 335.46 691.93 373.225 691.93 419.81C691.93 466.395 729.695 504.16 776.28 504.16Z" fill="white"/>
</svg>
