<svg id="Layer_1" data-name="Layer 1" xmlns="http://www.w3.org/2000/svg" viewBox="0 0 1920 529.68"><defs><style>.cls-1{font-size:381.15px;font-family:Gilroy-Bold, Gilroy;font-weight:700;}.cls-1,.cls-3{fill:#563393;}.cls-2{letter-spacing:-0.02em;}</style></defs><text className="cls-1" transform="translate(1027.19 406.76)"><tspan className="cls-2">w</tspan><tspan x="285.86" y="0">arp</tspan></text><path className="cls-3" d="M902.8,230.69c-.54.64-55.2,64.36-126.54,65.3-42.51.66-84-21.59-123.18-65.81h0c-52.83-59.68-110.84-89.35-172.74-88.34-99.92,1.73-170.73,85.1-174.08,89.13h0c-39.29,44.37-80.81,66.7-123.4,66-71.34-.93-126-64.65-126.54-65.3L7.18,283.4c3,3.57,73.92,87.44,174.14,89.17,1.07,0,2.13,0,3.2,0,60.59,0,118-30,169.87-88.68.53-.63,56.24-65.28,127-66.5,42.75-.76,84.32,21.41,123.7,65.8h0C657,341.88,714,371.6,774.6,371.6l3.21,0C878,369.84,949,286,951.94,282.39Z"/><circle className="cls-3" cx="479.69" cy="417.08" r="105.42"/><circle className="cls-3" cx="182.29" cy="108.41" r="105.42"/><circle className="cls-3" cx="774.85" cy="108.41" r="105.42"/></svg>