<svg width="255" height="257" viewBox="0 0 255 257" fill="none" xmlns="http://www.w3.org/2000/svg">
<path d="M71.9022 177.338H86.1565L69.6132 229.361H56.8157L47.2435 197.835L37.6713 229.361H24.8737L8.33053 177.338H22.5847L31.4286 209.28L40.8967 177.338H53.5903L63.0584 209.384L71.9022 177.338ZM130.896 177.338H144.318V229.361H130.896V223.222C126.873 228.286 121.22 230.818 113.937 230.818C107 230.818 101.035 228.182 96.0408 222.91C91.1159 217.569 88.6535 211.049 88.6535 203.35C88.6535 195.65 91.1159 189.165 96.0408 183.893C101.035 178.552 107 175.882 113.937 175.882C121.22 175.882 126.873 178.413 130.896 183.477V177.338ZM106.133 213.962C108.838 216.667 112.272 218.02 116.434 218.02C120.595 218.02 124.029 216.667 126.734 213.962C129.509 211.188 130.896 207.65 130.896 203.35C130.896 199.049 129.509 195.546 126.734 192.841C124.029 190.067 120.595 188.679 116.434 188.679C112.272 188.679 108.838 190.067 106.133 192.841C103.428 195.546 102.075 199.049 102.075 203.35C102.075 207.65 103.428 211.188 106.133 213.962ZM169.911 186.286C171.159 182.957 173.205 180.46 176.049 178.795C178.962 177.13 182.188 176.298 185.725 176.298V191.28C181.633 190.795 177.957 191.627 174.697 193.778C171.506 195.928 169.911 199.5 169.911 204.494V229.361H156.489V177.338H169.911V186.286ZM223.852 175.882C230.858 175.882 236.823 178.552 241.748 183.893C246.742 189.165 249.239 195.65 249.239 203.35C249.239 211.049 246.742 217.569 241.748 222.91C236.823 228.182 230.858 230.818 223.852 230.818C216.569 230.818 210.951 228.286 206.997 223.222V250.17H193.575V177.338H206.997V183.477C210.951 178.413 216.569 175.882 223.852 175.882ZM211.055 213.962C213.76 216.667 217.193 218.02 221.355 218.02C225.517 218.02 228.951 216.667 231.656 213.962C234.43 211.188 235.818 207.65 235.818 203.35C235.818 199.049 234.43 195.546 231.656 192.841C228.951 190.067 225.517 188.679 221.355 188.679C217.193 188.679 213.76 190.067 211.055 192.841C208.35 195.546 206.997 199.049 206.997 203.35C206.997 207.65 208.35 211.188 211.055 213.962Z" fill="#563392"/>
<path d="M241.737 61.4585C241.591 61.6312 226.838 78.8299 207.582 79.0836C196.108 79.2617 184.91 73.2562 174.335 61.3208C160.075 45.2126 144.418 37.2044 127.711 37.477C100.741 37.944 81.6288 60.4463 80.7246 61.5341C70.1199 73.51 58.9132 79.5371 47.4178 79.3481C28.1624 79.0971 13.4091 61.8984 13.2634 61.723L0 75.6854C0.809729 76.649 19.9517 99.2864 47.0021 99.7533C47.2909 99.7533 47.577 99.7533 47.8658 99.7533C64.2196 99.7533 79.7152 91.656 93.7154 75.8177C93.8584 75.6477 108.895 58.198 127.994 57.8687C139.533 57.6636 150.753 63.6475 161.382 75.6288C175.393 91.4698 190.778 99.4915 207.134 99.4915H208.001C235.043 99.0164 254.206 76.3872 255 75.4128L241.737 61.4585Z" fill="#563392"/>
<path d="M127.535 140.221C143.25 140.221 155.989 127.481 155.989 111.767C155.989 96.0522 143.25 83.3129 127.535 83.3129C111.82 83.3129 99.0811 96.0522 99.0811 111.767C99.0811 127.481 111.82 140.221 127.535 140.221Z" fill="#563392"/>
<path d="M47.2642 56.9078C62.9789 56.9078 75.7181 44.1686 75.7181 28.4539C75.7181 12.7392 62.9789 0 47.2642 0C31.5495 0 18.8103 12.7392 18.8103 28.4539C18.8103 44.1686 31.5495 56.9078 47.2642 56.9078Z" fill="#563392"/>
<path d="M207.202 56.9078C222.916 56.9078 235.656 44.1686 235.656 28.4539C235.656 12.7392 222.916 0 207.202 0C191.487 0 178.748 12.7392 178.748 28.4539C178.748 44.1686 191.487 56.9078 207.202 56.9078Z" fill="#563392"/>
</svg>
