<svg id="Layer_1" data-name="Layer 1" xmlns="http://www.w3.org/2000/svg" viewBox="0 0 1080 1080"><defs><style>.cls-1{fill:#31B4D8;}.cls-2{fill:#fff;}</style></defs><circle className="cls-1" cx="540" cy="543.3" r="536.61"/><path className="cls-2" d="M878.66,517.65c-.43.52-44.16,51.51-101.25,52.25-34,.53-67.18-17.27-98.57-52.66h0c-42.27-47.76-88.69-71.5-138.21-70.69-80,1.38-136.62,68.1-139.3,71.32h0c-31.44,35.51-64.66,53.37-98.74,52.84C245.5,570,201.77,519,201.34,518.46L162,559.83c2.38,2.85,59.15,70,139.34,71.35.86,0,1.71,0,2.57,0,48.48,0,94.38-24,135.92-71,.43-.51,45-52.24,101.61-53.21,34.21-.62,67.48,17.13,99,52.65h0C682,606.62,727.6,630.4,776.08,630.4l2.57,0C858.84,629,915.61,561.88,918,559Z"/><circle className="cls-2" cx="540.11" cy="666.8" r="84.35"/><circle className="cls-2" cx="302.13" cy="419.81" r="84.35"/><circle className="cls-2" cx="776.28" cy="419.81" r="84.35"/></svg>